<svg xmlns="http://www.w3.org/2000/svg" width="150" height="150" viewBox="0 0 150 150">
  <!-- Plano Clínica Média -->
  <circle cx="75" cy="75" r="60" fill="#EBF5FF" stroke="#3b82f6" stroke-width="2"/>
  <circle cx="75" cy="75" r="50" fill="#DBEAFE" stroke="#3b82f6" stroke-width="0"/>
  
  <!-- Clínica média (prédio maior) -->
  <rect x="40" y="40" width="25" height="60" fill="#3b82f6" rx="2" ry="2"/>
  <rect x="65" y="30" width="30" height="70" fill="#3b82f6" rx="2" ry="2"/>
  <rect x="95" y="50" width="20" height="50" fill="#3b82f6" rx="2" ry="2"/>
  
  <!-- Janelas -->
  <rect x="45" y="45" width="15" height="5" fill="#DBEAFE" rx="1" ry="1"/>
  <rect x="45" y="55" width="15" height="5" fill="#DBEAFE" rx="1" ry="1"/>
  <rect x="45" y="65" width="15" height="5" fill="#DBEAFE" rx="1" ry="1"/>
  <rect x="45" y="75" width="15" height="5" fill="#DBEAFE" rx="1" ry="1"/>
  
  <rect x="70" y="35" width="20" height="5" fill="#DBEAFE" rx="1" ry="1"/>
  <rect x="70" y="45" width="20" height="5" fill="#DBEAFE" rx="1" ry="1"/>
  <rect x="70" y="55" width="20" height="5" fill="#DBEAFE" rx="1" ry="1"/>
  <rect x="70" y="65" width="20" height="5" fill="#DBEAFE" rx="1" ry="1"/>
  <rect x="70" y="75" width="20" height="5" fill="#DBEAFE" rx="1" ry="1"/>
  
  <rect x="100" y="55" width="10" height="5" fill="#DBEAFE" rx="1" ry="1"/>
  <rect x="100" y="65" width="10" height="5" fill="#DBEAFE" rx="1" ry="1"/>
  <rect x="100" y="75" width="10" height="5" fill="#DBEAFE" rx="1" ry="1"/>
</svg>